<?xml version="1.0" encoding="UTF-8" standalone="no"?>
<!DOCTYPE svg PUBLIC "-//W3C//DTD SVG 1.1//EN" "http://www.w3.org/Graphics/SVG/1.1/DTD/svg11.dtd">
<svg width="100%" height="100%" viewBox="0 0 120 120" version="1.1" xmlns="http://www.w3.org/2000/svg" xmlns:xlink="http://www.w3.org/1999/xlink" xml:space="preserve" xmlns:serif="http://www.serif.com/" style="fill-rule:evenodd;clip-rule:evenodd;stroke-linecap:round;stroke-linejoin:round;stroke-miterlimit:1.5;">
    <g transform="matrix(1,0,0,1,-900.808,-440)">
        <g transform="matrix(1,-0.000141922,0.000141922,1,-0.120127,-59.8637)">
            <g transform="matrix(1,0.000141922,-0.000141922,1,-63.0802,59.8548)">
                <circle cx="1024" cy="500" r="60" style="fill:white;"/>
                <path d="M1024.39,440.001L1024.78,440.005L1025.16,440.011L1025.55,440.019L1025.93,440.03L1026.32,440.044L1026.7,440.06L1027.09,440.078L1027.47,440.099L1027.85,440.122L1028.23,440.147L1028.61,440.175L1028.99,440.205L1029.37,440.238L1029.75,440.273L1030.13,440.31L1030.51,440.349L1030.89,440.391L1031.26,440.436L1031.64,440.482L1032.01,440.531L1032.39,440.582L1032.76,440.636L1033.13,440.692L1033.5,440.75L1033.88,440.81L1034.25,440.873L1034.62,440.938L1034.98,441.005L1035.35,441.074L1035.72,441.146L1036.09,441.22L1036.45,441.296L1036.82,441.374L1037.18,441.455L1037.54,441.537L1037.91,441.622L1038.27,441.709L1038.63,441.799L1038.99,441.89L1039.35,441.984L1039.7,442.08L1040.06,442.178L1040.42,442.278L1040.77,442.38L1041.13,442.484L1041.48,442.591L1041.83,442.699L1042.19,442.81L1042.54,442.923L1042.89,443.038L1043.24,443.155L1043.58,443.274L1043.93,443.395L1044.28,443.518L1044.62,443.643L1044.96,443.77L1045.31,443.9L1045.65,444.031L1045.99,444.164L1046.33,444.3L1046.67,444.437L1047.01,444.577L1047.35,444.718L1047.68,444.861L1048.02,445.007L1048.35,445.154L1048.68,445.304L1049.01,445.455L1049.35,445.608L1049.67,445.763L1050,445.92L1050.33,446.079L1050.66,446.24L1050.98,446.403L1051.31,446.568L1051.63,446.735L1051.95,446.903L1052.27,447.074L1052.59,447.246L1052.91,447.42L1053.22,447.596L1053.54,447.774L1053.86,447.954L1054.17,448.136L1054.48,448.319L1054.79,448.504L1055.1,448.691L1055.41,448.88L1055.72,449.071L1056.03,449.264L1056.33,449.458L1056.63,449.654L1056.94,449.852L1057.24,450.051L1057.54,450.253L1057.84,450.456L1058.13,450.661L1058.43,450.867L1058.72,451.076L1059.02,451.286L1059.31,451.498L1059.6,451.711L1059.89,451.926L1060.18,452.143L1060.46,452.362L1060.75,452.582L1061.03,452.804L1061.32,453.027L1061.6,453.253L1061.88,453.48L1062.16,453.708L1062.43,453.938L1062.71,454.17L1062.98,454.403L1063.26,454.638L1063.53,454.875L1063.8,455.113L1064.07,455.353L1064.33,455.595L1064.6,455.838L1064.86,456.082L1065.13,456.328L1065.39,456.576L1065.65,456.825L1065.91,457.076L1066.16,457.328L1066.42,457.582L1066.67,457.837L1066.92,458.094L1067.17,458.352L1067.42,458.612L1067.67,458.873L1067.92,459.136L1068.16,459.4L1068.4,459.666L1068.65,459.933L1068.89,460.202L1069.13,460.472L1069.36,460.743L1069.6,461.016L1069.83,461.291L1070.06,461.566L1070.29,461.843L1070.52,462.122L1070.75,462.402L1070.97,462.683L1071.2,462.966L1071.42,463.25L1071.64,463.536L1071.86,463.822L1072.07,464.11L1072.29,464.4L1072.5,464.691L1072.71,464.983L1072.92,465.276L1073.13,465.571L1073.34,465.867L1073.54,466.164L1073.75,466.463L1073.95,466.763L1074.15,467.064L1074.35,467.367L1074.54,467.67L1074.74,467.975L1074.93,468.281L1075.12,468.589L1075.31,468.898L1075.5,469.207L1075.68,469.519L1075.86,469.831L1076.05,470.144L1076.23,470.459L1076.4,470.775L1076.58,471.092L1076.75,471.41L1076.93,471.73L1077.1,472.05L1077.27,472.372L1077.43,472.695L1077.6,473.018L1077.76,473.344L1077.92,473.67L1078.08,473.997L1078.24,474.325L1078.39,474.655L1078.55,474.986L1078.7,475.317L1078.85,475.65L1078.99,475.984L1079.14,476.319L1079.28,476.655L1079.42,476.991L1079.56,477.329L1079.7,477.668L1079.84,478.009L1079.97,478.35L1080.1,478.692L1080.23,479.035L1080.36,479.379L1080.48,479.724L1080.61,480.07L1080.73,480.417L1080.85,480.765L1080.96,481.114L1081.08,481.463L1081.19,481.814L1081.3,482.166L1081.41,482.519L1081.52,482.872L1081.62,483.227L1081.72,483.582L1081.82,483.938L1081.92,484.295L1082.02,484.653L1082.11,485.012L1082.2,485.372L1082.29,485.733L1082.38,486.094L1082.46,486.457L1082.55,486.82L1082.63,487.184L1082.7,487.549L1082.78,487.914L1082.85,488.281L1082.93,488.648L1083,489.016L1083.06,489.385L1083.13,489.754L1083.19,490.125L1083.25,490.496L1083.31,490.868L1083.36,491.24L1083.42,491.614L1083.47,491.988L1083.52,492.362L1083.56,492.738L1083.61,493.114L1083.65,493.491L1083.69,493.869L1083.73,494.247L1083.76,494.626L1083.8,495.006L1083.83,495.386L1083.85,495.767L1083.88,496.149L1083.9,496.531L1083.92,496.914L1083.94,497.298L1083.96,497.682L1083.97,498.067L1083.98,498.452L1083.99,498.838L1084,499.225L1084,499.612L1084,500L1084,500.388L1084,500.775L1083.99,501.161L1083.98,501.547L1083.97,501.933L1083.96,502.318L1083.94,502.702L1083.92,503.085L1083.9,503.468L1083.88,503.851L1083.85,504.232L1083.83,504.613L1083.8,504.994L1083.76,505.373L1083.73,505.753L1083.69,506.131L1083.65,506.508L1083.61,506.885L1083.56,507.262L1083.52,507.637L1083.47,508.012L1083.42,508.386L1083.36,508.76L1083.31,509.132L1083.25,509.504L1083.19,509.875L1083.13,510.245L1083.06,510.615L1083,510.984L1082.93,511.352L1082.85,511.719L1082.78,512.086L1082.7,512.451L1082.63,512.816L1082.55,513.18L1082.46,513.543L1082.38,513.905L1082.29,514.267L1082.2,514.628L1082.11,514.987L1082.02,515.346L1081.92,515.704L1081.82,516.061L1081.72,516.418L1081.62,516.773L1081.52,517.128L1081.41,517.481L1081.3,517.834L1081.19,518.185L1081.08,518.536L1080.96,518.886L1080.85,519.235L1080.73,519.583L1080.61,519.93L1080.48,520.276L1080.36,520.621L1080.23,520.965L1080.1,521.308L1079.97,521.65L1079.84,521.991L1079.7,522.331L1079.56,522.67L1079.42,523.008L1079.28,523.345L1079.14,523.681L1078.99,524.016L1078.85,524.35L1078.7,524.683L1078.55,525.014L1078.39,525.345L1078.24,525.674L1078.08,526.003L1077.92,526.33L1077.76,526.656L1077.6,526.981L1077.43,527.305L1077.27,527.628L1077.1,527.95L1076.93,528.27L1076.75,528.59L1076.58,528.908L1076.4,529.225L1076.23,529.541L1076.05,529.855L1075.86,530.169L1075.68,530.481L1075.5,530.792L1075.31,531.102L1075.12,531.411L1074.93,531.718L1074.74,532.024L1074.54,532.329L1074.35,532.633L1074.15,532.936L1073.95,533.237L1073.75,533.537L1073.54,533.835L1073.34,534.133L1073.13,534.429L1072.92,534.723L1072.71,535.017L1072.5,535.309L1072.29,535.6L1072.07,535.889L1071.86,536.177L1071.64,536.464L1071.42,536.75L1071.2,537.034L1070.97,537.316L1070.75,537.598L1070.52,537.878L1070.29,538.156L1070.06,538.433L1069.83,538.709L1069.6,538.983L1069.36,539.256L1069.13,539.528L1068.89,539.798L1068.65,540.067L1068.4,540.334L1068.16,540.599L1067.92,540.864L1067.67,541.126L1067.42,541.388L1067.17,541.648L1066.92,541.906L1066.67,542.163L1066.42,542.418L1066.16,542.672L1065.91,542.924L1065.65,543.175L1065.39,543.424L1065.13,543.672L1064.86,543.918L1064.6,544.162L1064.33,544.405L1064.07,544.647L1063.8,544.886L1063.53,545.125L1063.26,545.361L1062.98,545.596L1062.71,545.83L1062.43,546.061L1062.16,546.292L1061.88,546.52L1061.6,546.747L1061.32,546.972L1061.03,547.196L1060.75,547.418L1060.46,547.638L1060.18,547.857L1059.89,548.073L1059.6,548.289L1059.31,548.502L1059.02,548.714L1058.72,548.924L1058.43,549.132L1058.13,549.339L1057.84,549.544L1057.54,549.747L1057.24,549.948L1056.94,550.148L1056.63,550.346L1056.33,550.542L1056.03,550.736L1055.72,550.929L1055.41,551.119L1055.1,551.308L1054.79,551.495L1054.48,551.681L1054.17,551.864L1053.86,552.046L1053.54,552.225L1053.22,552.403L1052.91,552.579L1052.59,552.754L1052.27,552.926L1051.95,553.096L1051.63,553.265L1051.31,553.432L1050.98,553.597L1050.66,553.759L1050.33,553.92L1050,554.079L1049.67,554.237L1049.35,554.392L1049.01,554.545L1048.68,554.696L1048.35,554.846L1048.02,554.993L1047.68,555.138L1047.35,555.282L1047.01,555.423L1046.67,555.562L1046.33,555.7L1045.99,555.835L1045.65,555.969L1045.31,556.1L1044.96,556.229L1044.62,556.357L1044.28,556.482L1043.93,556.605L1043.58,556.726L1043.24,556.845L1042.89,556.962L1042.54,557.077L1042.19,557.19L1041.83,557.3L1041.48,557.409L1041.13,557.516L1040.77,557.62L1040.42,557.722L1040.06,557.822L1039.7,557.92L1039.35,558.016L1038.99,558.11L1038.63,558.201L1038.27,558.29L1037.91,558.377L1037.54,558.462L1037.18,558.545L1036.82,558.626L1036.45,558.704L1036.09,558.78L1035.72,558.854L1035.35,558.925L1034.98,558.995L1034.62,559.062L1034.25,559.127L1033.88,559.19L1033.5,559.25L1033.13,559.308L1032.76,559.364L1032.39,559.417L1032.01,559.469L1031.64,559.517L1031.26,559.564L1030.89,559.608L1030.51,559.65L1030.13,559.69L1029.75,559.727L1029.37,559.762L1028.99,559.795L1028.61,559.825L1028.23,559.853L1027.85,559.878L1027.47,559.901L1027.09,559.922L1026.7,559.94L1026.32,559.956L1025.93,559.969L1025.55,559.98L1025.16,559.989L1024.78,559.995L1024.39,559.999L1024,560L1023.61,559.999L1023.23,559.995L1022.84,559.989L1022.45,559.98L1022.07,559.969L1021.68,559.956L1021.3,559.94L1020.91,559.922L1020.53,559.901L1020.15,559.878L1019.77,559.853L1019.39,559.825L1019.01,559.795L1018.63,559.762L1018.25,559.727L1017.87,559.69L1017.49,559.65L1017.11,559.608L1016.74,559.564L1016.36,559.517L1015.99,559.469L1015.61,559.417L1015.24,559.364L1014.87,559.308L1014.5,559.25L1014.13,559.19L1013.75,559.127L1013.38,559.062L1013.02,558.995L1012.65,558.925L1012.28,558.854L1011.91,558.78L1011.55,558.704L1011.18,558.626L1010.82,558.545L1010.46,558.462L1010.09,558.377L1009.73,558.29L1009.37,558.201L1009.01,558.11L1008.65,558.016L1008.3,557.92L1007.94,557.822L1007.58,557.722L1007.23,557.62L1006.87,557.516L1006.52,557.409L1006.17,557.3L1005.81,557.19L1005.46,557.077L1005.11,556.962L1004.76,556.845L1004.42,556.726L1004.07,556.605L1003.72,556.482L1003.38,556.357L1003.03,556.229L1002.69,556.1L1002.35,555.969L1002.01,555.835L1001.67,555.7L1001.33,555.562L1000.99,555.423L1000.65,555.282L1000.32,555.138L999.984,554.993L999.65,554.846L999.317,554.696L998.986,554.545L998.655,554.392L998.326,554.237L997.997,554.079L997.67,553.92L997.344,553.759L997.019,553.597L996.695,553.432L996.372,553.265L996.05,553.096L995.73,552.926L995.41,552.754L995.092,552.579L994.775,552.403L994.459,552.225L994.144,552.046L993.831,551.864L993.519,551.681L993.208,551.495L992.898,551.308L992.589,551.119L992.282,550.929L991.975,550.736L991.67,550.542L991.367,550.346L991.064,550.148L990.763,549.948L990.463,549.747L990.165,549.544L989.867,549.339L989.571,549.132L989.276,548.924L988.983,548.714L988.691,548.502L988.4,548.289L988.111,548.073L987.822,547.857L987.536,547.638L987.25,547.418L986.966,547.196L986.683,546.972L986.402,546.747L986.122,546.52L985.844,546.292L985.567,546.061L985.291,545.83L985.016,545.596L984.743,545.361L984.472,545.125L984.202,544.886L983.933,544.647L983.666,544.405L983.4,544.162L983.136,543.918L982.873,543.672L982.612,543.424L982.352,543.175L982.094,542.924L981.837,542.672L981.582,542.418L981.328,542.163L981.076,541.906L980.825,541.648L980.576,541.388L980.328,541.126L980.082,540.864L979.838,540.599L979.595,540.334L979.353,540.067L979.113,539.798L978.875,539.528L978.639,539.256L978.404,538.983L978.17,538.709L977.938,538.433L977.708,538.156L977.48,537.878L977.253,537.598L977.028,537.316L976.804,537.034L976.582,536.75L976.362,536.464L976.143,536.177L975.926,535.889L975.711,535.6L975.498,535.309L975.286,535.017L975.076,534.723L974.868,534.429L974.661,534.133L974.456,533.835L974.253,533.537L974.052,533.237L973.852,532.936L973.654,532.633L973.458,532.329L973.264,532.024L973.071,531.718L972.88,531.411L972.692,531.102L972.504,530.792L972.319,530.481L972.136,530.169L971.954,529.855L971.774,529.541L971.596,529.225L971.42,528.908L971.246,528.59L971.074,528.27L970.903,527.95L970.735,527.628L970.568,527.305L970.403,526.981L970.24,526.656L970.079,526.33L969.92,526.003L969.763,525.674L969.608,525.345L969.455,525.014L969.304,524.683L969.154,524.35L969.007,524.016L968.862,523.681L968.718,523.345L968.577,523.008L968.437,522.67L968.3,522.331L968.165,521.991L968.031,521.65L967.9,521.308L967.771,520.965L967.643,520.621L967.518,520.276L967.395,519.93L967.274,519.583L967.155,519.235L967.038,518.886L966.923,518.536L966.81,518.185L966.699,517.834L966.591,517.481L966.484,517.128L966.38,516.773L966.278,516.418L966.178,516.061L966.08,515.704L965.984,515.346L965.89,514.987L965.799,514.628L965.71,514.267L965.622,513.905L965.538,513.543L965.455,513.18L965.374,512.816L965.296,512.451L965.22,512.086L965.146,511.719L965.074,511.352L965.005,510.984L964.938,510.615L964.873,510.245L964.81,509.875L964.75,509.504L964.692,509.132L964.636,508.76L964.583,508.386L964.531,508.012L964.482,507.637L964.436,507.262L964.392,506.885L964.35,506.508L964.31,506.131L964.273,505.753L964.238,505.373L964.205,504.994L964.175,504.613L964.147,504.232L964.122,503.851L964.099,503.468L964.078,503.085L964.06,502.702L964.044,502.318L964.031,501.933L964.02,501.547L964.011,501.161L964.005,500.775L964.001,500.388L964,500L964.001,499.612L964.005,499.225L964.011,498.838L964.02,498.452L964.031,498.067L964.044,497.682L964.06,497.298L964.078,496.914L964.099,496.531L964.122,496.149L964.147,495.767L964.175,495.386L964.205,495.006L964.238,494.626L964.273,494.247L964.31,493.869L964.35,493.491L964.392,493.114L964.436,492.738L964.482,492.362L964.531,491.988L964.583,491.614L964.636,491.24L964.692,490.868L964.75,490.496L964.81,490.125L964.873,489.754L964.938,489.385L965.005,489.016L965.074,488.648L965.146,488.281L965.22,487.914L965.296,487.549L965.374,487.184L965.455,486.82L965.538,486.457L965.622,486.094L965.71,485.733L965.799,485.372L965.89,485.012L965.984,484.653L966.08,484.295L966.178,483.938L966.278,483.582L966.38,483.227L966.484,482.872L966.591,482.519L966.699,482.166L966.81,481.814L966.923,481.463L967.038,481.114L967.155,480.765L967.274,480.417L967.395,480.07L967.518,479.724L967.643,479.379L967.771,479.035L967.9,478.692L968.031,478.35L968.165,478.009L968.3,477.668L968.437,477.329L968.577,476.991L968.718,476.655L968.862,476.319L969.007,475.984L969.154,475.65L969.304,475.317L969.455,474.986L969.608,474.655L969.763,474.325L969.92,473.997L970.079,473.67L970.24,473.344L970.403,473.018L970.568,472.695L970.735,472.372L970.903,472.05L971.074,471.73L971.246,471.41L971.42,471.092L971.596,470.775L971.774,470.459L971.954,470.144L972.136,469.831L972.319,469.519L972.504,469.207L972.692,468.898L972.88,468.589L973.071,468.281L973.264,467.975L973.458,467.67L973.654,467.367L973.852,467.064L974.052,466.763L974.253,466.463L974.456,466.164L974.661,465.867L974.868,465.571L975.076,465.276L975.286,464.983L975.498,464.691L975.711,464.4L975.926,464.11L976.143,463.822L976.362,463.536L976.582,463.25L976.804,462.966L977.028,462.683L977.253,462.402L977.48,462.122L977.708,461.843L977.938,461.566L978.17,461.291L978.404,461.016L978.639,460.743L978.875,460.472L979.113,460.202L979.353,459.933L979.595,459.666L979.838,459.4L980.082,459.136L980.328,458.873L980.576,458.612L980.825,458.352L981.076,458.094L981.328,457.837L981.582,457.582L981.837,457.328L982.094,457.076L982.352,456.825L982.612,456.576L982.873,456.328L983.136,456.082L983.4,455.838L983.666,455.595L983.933,455.353L984.202,455.113L984.472,454.875L984.743,454.638L985.016,454.403L985.291,454.17L985.567,453.938L985.844,453.708L986.122,453.48L986.402,453.253L986.683,453.027L986.966,452.804L987.25,452.582L987.536,452.362L987.822,452.143L988.111,451.926L988.4,451.711L988.691,451.498L988.983,451.286L989.276,451.076L989.571,450.867L989.867,450.661L990.165,450.456L990.463,450.253L990.763,450.051L991.064,449.852L991.367,449.654L991.67,449.458L991.975,449.264L992.282,449.071L992.589,448.88L992.898,448.691L993.208,448.504L993.519,448.319L993.831,448.136L994.144,447.954L994.459,447.774L994.775,447.596L995.092,447.42L995.41,447.246L995.73,447.074L996.05,446.903L996.372,446.735L996.695,446.568L997.019,446.403L997.344,446.24L997.67,446.079L997.997,445.92L998.326,445.763L998.655,445.608L998.986,445.455L999.317,445.304L999.65,445.154L999.984,445.007L1000.32,444.861L1000.65,444.718L1000.99,444.577L1001.33,444.437L1001.67,444.3L1002.01,444.164L1002.35,444.031L1002.69,443.9L1003.03,443.77L1003.38,443.643L1003.72,443.518L1004.07,443.395L1004.42,443.274L1004.76,443.155L1005.11,443.038L1005.46,442.923L1005.81,442.81L1006.17,442.699L1006.52,442.591L1006.87,442.484L1007.23,442.38L1007.58,442.278L1007.94,442.178L1008.3,442.08L1008.65,441.984L1009.01,441.89L1009.37,441.799L1009.73,441.709L1010.09,441.622L1010.46,441.537L1010.82,441.455L1011.18,441.374L1011.55,441.296L1011.91,441.22L1012.28,441.146L1012.65,441.074L1013.02,441.005L1013.38,440.938L1013.75,440.873L1014.13,440.81L1014.5,440.75L1014.87,440.692L1015.24,440.636L1015.61,440.582L1015.99,440.531L1016.36,440.482L1016.74,440.436L1017.11,440.391L1017.49,440.349L1017.87,440.31L1018.25,440.273L1018.63,440.238L1019.01,440.205L1019.39,440.175L1019.77,440.147L1020.15,440.122L1020.53,440.099L1020.91,440.078L1021.3,440.06L1021.68,440.044L1022.07,440.03L1022.45,440.019L1022.84,440.011L1023.23,440.005L1023.61,440.001L1024,440L1024.39,440.001ZM1023.64,445.001L1023.29,445.004L1022.93,445.01L1022.58,445.018L1022.23,445.028L1021.87,445.04L1021.52,445.055L1021.17,445.072L1020.82,445.091L1020.47,445.112L1020.12,445.135L1019.77,445.161L1019.42,445.188L1019.07,445.218L1018.72,445.25L1018.38,445.284L1018.03,445.321L1017.68,445.359L1017.34,445.4L1016.99,445.442L1016.65,445.487L1016.31,445.534L1015.97,445.583L1015.62,445.634L1015.28,445.687L1014.94,445.743L1014.6,445.8L1014.26,445.86L1013.93,445.921L1013.59,445.985L1013.25,446.05L1012.92,446.118L1012.58,446.188L1012.25,446.26L1011.92,446.333L1011.58,446.409L1011.25,446.487L1010.92,446.567L1010.59,446.648L1010.26,446.732L1009.93,446.818L1009.6,446.906L1009.28,446.995L1008.95,447.087L1008.62,447.181L1008.3,447.276L1007.98,447.374L1007.65,447.473L1007.33,447.575L1007.01,447.678L1006.69,447.783L1006.37,447.89L1006.05,447.999L1005.73,448.11L1005.42,448.223L1005.1,448.338L1004.78,448.454L1004.47,448.573L1004.16,448.693L1003.84,448.816L1003.53,448.939L1003.22,449.065L1002.91,449.193L1002.6,449.323L1002.3,449.454L1001.99,449.587L1001.68,449.722L1001.38,449.859L1001.07,449.998L1000.77,450.138L1000.47,450.28L1000.17,450.424L999.869,450.57L999.57,450.717L999.272,450.867L998.975,451.018L998.68,451.17L998.385,451.325L998.091,451.481L997.798,451.639L997.506,451.799L997.216,451.96L996.926,452.123L996.638,452.288L996.35,452.454L996.064,452.623L995.779,452.793L995.495,452.964L995.212,453.137L994.93,453.312L994.649,453.489L994.37,453.667L994.092,453.846L993.814,454.028L993.538,454.211L993.263,454.395L992.989,454.582L992.716,454.77L992.445,454.959L992.175,455.15L991.906,455.343L991.638,455.537L991.371,455.733L991.106,455.93L990.841,456.129L990.578,456.329L990.317,456.531L990.056,456.735L989.797,456.94L989.539,457.146L989.282,457.354L989.027,457.564L988.772,457.775L988.519,457.988L988.268,458.202L988.018,458.418L987.768,458.635L987.521,458.853L987.275,459.073L987.029,459.295L986.785,459.517L986.543,459.741L986.302,459.967L986.062,460.195L985.824,460.423L985.588,460.653L985.352,460.884L985.117,461.118L984.885,461.352L984.654,461.587L984.423,461.824L984.195,462.062L983.967,462.302L983.742,462.543L983.518,462.785L983.295,463.029L983.074,463.274L982.853,463.521L982.635,463.768L982.418,464.017L982.202,464.268L981.988,464.519L981.775,464.772L981.564,465.027L981.355,465.282L981.147,465.539L980.94,465.797L980.735,466.056L980.532,466.316L980.329,466.578L980.129,466.841L979.93,467.105L979.733,467.371L979.537,467.638L979.343,467.905L979.15,468.175L978.959,468.445L978.77,468.716L978.582,468.989L978.395,469.263L978.211,469.538L978.028,469.813L977.847,470.091L977.667,470.37L977.489,470.649L977.312,470.93L977.137,471.212L976.964,471.495L976.793,471.779L976.623,472.064L976.455,472.35L976.288,472.637L976.124,472.926L975.96,473.216L975.799,473.507L975.639,473.798L975.481,474.09L975.325,474.384L975.171,474.679L975.018,474.975L974.867,475.272L974.718,475.57L974.57,475.869L974.424,476.169L974.28,476.47L974.138,476.772L973.998,477.074L973.859,477.378L973.722,477.683L973.587,477.989L973.454,478.296L973.323,478.604L973.193,478.912L973.066,479.221L972.94,479.532L972.816,479.844L972.693,480.156L972.573,480.47L972.455,480.784L972.338,481.099L972.223,481.415L972.11,481.732L971.999,482.05L971.891,482.368L971.783,482.688L971.678,483.009L971.575,483.33L971.473,483.652L971.374,483.975L971.277,484.299L971.181,484.624L971.087,484.949L970.996,485.275L970.906,485.603L970.818,485.93L970.732,486.259L970.649,486.589L970.567,486.92L970.487,487.25L970.409,487.582L970.333,487.915L970.26,488.248L970.188,488.583L970.118,488.918L970.051,489.253L969.985,489.59L969.921,489.927L969.86,490.264L969.8,490.603L969.743,490.943L969.688,491.283L969.634,491.624L969.583,491.965L969.534,492.307L969.487,492.65L969.442,492.994L969.4,493.338L969.359,493.683L969.321,494.028L969.284,494.374L969.25,494.722L969.218,495.069L969.188,495.417L969.161,495.766L969.135,496.116L969.112,496.466L969.091,496.816L969.072,497.168L969.055,497.52L969.04,497.872L969.028,498.226L969.018,498.579L969.01,498.933L969.005,499.288L969.001,499.644L969,500L969.001,500.356L969.005,500.711L969.01,501.067L969.018,501.42L969.028,501.774L969.04,502.128L969.055,502.48L969.072,502.832L969.091,503.183L969.112,503.534L969.135,503.884L969.161,504.233L969.188,504.583L969.218,504.93L969.25,505.278L969.284,505.626L969.321,505.971L969.359,506.317L969.4,506.662L969.442,507.006L969.487,507.349L969.534,507.692L969.583,508.035L969.634,508.376L969.688,508.717L969.743,509.057L969.8,509.396L969.86,509.735L969.921,510.073L969.985,510.41L970.051,510.747L970.118,511.082L970.188,511.417L970.26,511.751L970.333,512.084L970.409,512.418L970.487,512.749L970.567,513.08L970.649,513.411L970.732,513.741L970.818,514.069L970.906,514.397L970.996,514.724L971.087,515.051L971.181,515.376L971.277,515.701L971.374,516.024L971.473,516.348L971.575,516.67L971.678,516.991L971.783,517.311L971.891,517.631L971.999,517.95L972.11,518.267L972.223,518.584L972.338,518.901L972.455,519.216L972.573,519.53L972.693,519.843L972.816,520.156L972.94,520.468L973.066,520.778L973.193,521.087L973.323,521.396L973.454,521.704L973.587,522.01L973.723,522.317L973.859,522.622L973.998,522.925L974.138,523.228L974.28,523.53L974.424,523.831L974.57,524.131L974.718,524.43L974.867,524.728L975.018,525.025L975.171,525.321L975.325,525.615L975.481,525.909L975.639,526.202L975.799,526.493L975.96,526.784L976.124,527.074L976.288,527.363L976.455,527.649L976.623,527.936L976.793,528.221L976.964,528.505L977.137,528.788L977.312,529.07L977.489,529.35L977.667,529.63L977.847,529.908L978.028,530.186L978.211,530.462L978.395,530.737L978.582,531.01L978.77,531.284L978.959,531.555L979.15,531.825L979.343,532.095L979.537,532.362L979.733,532.629L979.93,532.895L980.129,533.158L980.329,533.421L980.532,533.683L980.735,533.944L980.94,534.203L981.147,534.461L981.355,534.718L981.564,534.973L981.775,535.227L981.988,535.48L982.202,535.732L982.418,535.982L982.635,536.231L982.853,536.479L983.073,536.726L983.295,536.971L983.518,537.214L983.742,537.456L983.967,537.698L984.195,537.938L984.423,538.176L984.653,538.413L984.885,538.648L985.117,538.882L985.352,539.115L985.587,539.347L985.824,539.576L986.062,539.805L986.302,540.032L986.543,540.258L986.785,540.482L987.029,540.705L987.275,540.927L987.521,541.147L987.768,541.365L988.018,541.582L988.268,541.798L988.519,542.012L988.772,542.224L989.027,542.436L989.282,542.645L989.539,542.853L989.797,543.06L990.056,543.265L990.317,543.469L990.579,543.671L990.841,543.871L991.106,544.07L991.371,544.267L991.638,544.463L991.906,544.657L992.175,544.85L992.445,545.041L992.716,545.23L992.989,545.418L993.263,545.604L993.538,545.789L993.814,545.972L994.092,546.153L994.37,546.333L994.649,546.511L994.93,546.688L995.212,546.862L995.495,547.036L995.779,547.207L996.064,547.377L996.35,547.545L996.638,547.712L996.926,547.876L997.216,548.04L997.507,548.201L997.798,548.361L998.091,548.519L998.385,548.675L998.679,548.829L998.975,548.982L999.272,549.133L999.57,549.282L999.869,549.43L1000.17,549.576L1000.47,549.72L1000.77,549.862L1001.07,550.002L1001.38,550.141L1001.68,550.277L1001.99,550.413L1002.3,550.546L1002.6,550.677L1002.91,550.807L1003.22,550.934L1003.53,551.06L1003.84,551.184L1004.16,551.307L1004.47,551.427L1004.78,551.545L1005.1,551.662L1005.42,551.776L1005.73,551.889L1006.05,552L1006.37,552.109L1006.69,552.217L1007.01,552.322L1007.33,552.425L1007.65,552.526L1007.98,552.626L1008.3,552.723L1008.62,552.819L1008.95,552.913L1009.27,553.004L1009.6,553.094L1009.93,553.182L1010.26,553.267L1010.59,553.351L1010.92,553.433L1011.25,553.513L1011.58,553.591L1011.92,553.666L1012.25,553.74L1012.58,553.812L1012.92,553.882L1013.25,553.949L1013.59,554.015L1013.93,554.079L1014.26,554.14L1014.6,554.199L1014.94,554.257L1015.28,554.312L1015.62,554.365L1015.97,554.417L1016.31,554.466L1016.65,554.513L1016.99,554.557L1017.34,554.6L1017.68,554.641L1018.03,554.679L1018.38,554.715L1018.72,554.75L1019.07,554.782L1019.42,554.812L1019.77,554.839L1020.12,554.865L1020.47,554.888L1020.82,554.909L1021.17,554.928L1021.52,554.945L1021.87,554.959L1022.23,554.972L1022.58,554.982L1022.93,554.99L1023.29,554.995L1023.64,554.999L1024,555L1024.36,554.999L1024.71,554.995L1025.07,554.99L1025.42,554.982L1025.78,554.972L1026.13,554.959L1026.48,554.945L1026.83,554.928L1027.18,554.909L1027.53,554.888L1027.88,554.865L1028.23,554.839L1028.58,554.812L1028.93,554.782L1029.28,554.75L1029.63,554.715L1029.97,554.679L1030.32,554.641L1030.66,554.6L1031.01,554.557L1031.35,554.513L1031.69,554.466L1032.04,554.417L1032.38,554.365L1032.72,554.312L1033.06,554.257L1033.4,554.199L1033.74,554.14L1034.07,554.079L1034.41,554.015L1034.75,553.949L1035.08,553.882L1035.42,553.812L1035.75,553.74L1036.09,553.666L1036.42,553.591L1036.75,553.513L1037.08,553.433L1037.41,553.351L1037.74,553.267L1038.07,553.182L1038.4,553.094L1038.72,553.004L1039.05,552.913L1039.38,552.819L1039.7,552.723L1040.03,552.626L1040.35,552.526L1040.67,552.425L1040.99,552.322L1041.31,552.217L1041.63,552.109L1041.95,552L1042.27,551.889L1042.59,551.777L1042.9,551.662L1043.22,551.545L1043.53,551.427L1043.84,551.306L1044.16,551.184L1044.47,551.06L1044.78,550.934L1045.09,550.807L1045.4,550.677L1045.7,550.546L1046.01,550.412L1046.32,550.277L1046.62,550.141L1046.93,550.002L1047.23,549.862L1047.53,549.72L1047.83,549.576L1048.13,549.43L1048.43,549.282L1048.73,549.133L1049.03,548.982L1049.32,548.829L1049.62,548.675L1049.91,548.519L1050.2,548.361L1050.49,548.201L1050.78,548.04L1051.07,547.876L1051.36,547.712L1051.65,547.545L1051.94,547.377L1052.22,547.207L1052.51,547.036L1052.79,546.862L1053.07,546.688L1053.35,546.511L1053.63,546.333L1053.91,546.153L1054.19,545.972L1054.46,545.789L1054.74,545.604L1055.01,545.418L1055.28,545.23L1055.56,545.041L1055.83,544.85L1056.09,544.657L1056.36,544.463L1056.63,544.267L1056.89,544.07L1057.16,543.871L1057.42,543.67L1057.68,543.468L1057.94,543.265L1058.2,543.06L1058.46,542.853L1058.72,542.645L1058.97,542.435L1059.23,542.224L1059.48,542.012L1059.73,541.798L1059.98,541.582L1060.23,541.365L1060.48,541.147L1060.73,540.926L1060.97,540.705L1061.21,540.482L1061.46,540.258L1061.7,540.032L1061.94,539.805L1062.18,539.577L1062.41,539.346L1062.65,539.115L1062.88,538.883L1063.12,538.648L1063.35,538.413L1063.58,538.176L1063.81,537.937L1064.03,537.698L1064.26,537.457L1064.48,537.214L1064.71,536.97L1064.93,536.725L1065.15,536.479L1065.37,536.231L1065.58,535.982L1065.8,535.732L1066.01,535.48L1066.22,535.227L1066.43,534.974L1066.64,534.718L1066.85,534.461L1067.06,534.203L1067.27,533.944L1067.47,533.683L1067.67,533.421L1067.87,533.158L1068.07,532.894L1068.27,532.629L1068.46,532.362L1068.66,532.094L1068.85,531.825L1069.04,531.555L1069.23,531.284L1069.42,531.011L1069.6,530.737L1069.79,530.462L1069.97,530.186L1070.15,529.908L1070.33,529.63L1070.51,529.35L1070.69,529.07L1070.86,528.788L1071.04,528.505L1071.21,528.221L1071.38,527.936L1071.55,527.649L1071.71,527.362L1071.88,527.073L1072.04,526.784L1072.2,526.494L1072.36,526.202L1072.52,525.909L1072.67,525.615L1072.83,525.32L1072.98,525.025L1073.13,524.728L1073.28,524.43L1073.43,524.131L1073.58,523.831L1073.72,523.53L1073.86,523.229L1074,522.925L1074.14,522.621L1074.28,522.317L1074.41,522.011L1074.55,521.704L1074.68,521.396L1074.81,521.088L1074.93,520.778L1075.06,520.467L1075.18,520.156L1075.31,519.843L1075.43,519.53L1075.55,519.216L1075.66,518.901L1075.78,518.585L1075.89,518.267L1076,517.95L1076.11,517.631L1076.22,517.311L1076.32,516.991L1076.42,516.67L1076.53,516.348L1076.63,516.024L1076.72,515.701L1076.82,515.376L1076.91,515.051L1077,514.724L1077.09,514.397L1077.18,514.069L1077.27,513.741L1077.35,513.411L1077.43,513.08L1077.51,512.749L1077.59,512.418L1077.67,512.085L1077.74,511.751L1077.81,511.417L1077.88,511.082L1077.95,510.747L1078.02,510.41L1078.08,510.073L1078.14,509.735L1078.2,509.396L1078.26,509.057L1078.31,508.717L1078.37,508.377L1078.42,508.035L1078.47,507.692L1078.51,507.349L1078.56,507.006L1078.6,506.662L1078.64,506.317L1078.68,505.971L1078.72,505.625L1078.75,505.278L1078.78,504.931L1078.81,504.583L1078.84,504.233L1078.87,503.884L1078.89,503.534L1078.91,503.183L1078.93,502.832L1078.94,502.48L1078.96,502.127L1078.97,501.774L1078.98,501.421L1078.99,501.066L1079,500.711L1079,500.356L1079,500L1079,499.644L1079,499.288L1078.99,498.933L1078.98,498.579L1078.97,498.226L1078.96,497.873L1078.94,497.519L1078.93,497.168L1078.91,496.816L1078.89,496.466L1078.87,496.116L1078.84,495.766L1078.81,495.417L1078.78,495.069L1078.75,494.722L1078.72,494.375L1078.68,494.028L1078.64,493.683L1078.6,493.338L1078.56,492.993L1078.51,492.65L1078.47,492.308L1078.42,491.965L1078.37,491.623L1078.31,491.283L1078.26,490.943L1078.2,490.604L1078.14,490.265L1078.08,489.927L1078.02,489.59L1077.95,489.253L1077.88,488.918L1077.81,488.583L1077.74,488.248L1077.67,487.915L1077.59,487.582L1077.51,487.25L1077.43,486.92L1077.35,486.589L1077.27,486.259L1077.18,485.931L1077.09,485.602L1077,485.275L1076.91,484.949L1076.82,484.623L1076.72,484.299L1076.63,483.975L1076.53,483.652L1076.42,483.33L1076.32,483.008L1076.22,482.688L1076.11,482.369L1076,482.05L1075.89,481.732L1075.78,481.415L1075.66,481.099L1075.55,480.784L1075.43,480.47L1075.31,480.156L1075.18,479.843L1075.06,479.532L1074.93,479.222L1074.81,478.912L1074.68,478.604L1074.55,478.296L1074.41,477.989L1074.28,477.683L1074.14,477.379L1074,477.074L1073.86,476.771L1073.72,476.47L1073.58,476.169L1073.43,475.868L1073.28,475.57L1073.13,475.272L1072.98,474.975L1072.83,474.68L1072.67,474.385L1072.52,474.09L1072.36,473.798L1072.2,473.506L1072.04,473.216L1071.88,472.926L1071.71,472.638L1071.55,472.35L1071.38,472.064L1071.21,471.779L1071.04,471.495L1070.86,471.212L1070.69,470.93L1070.51,470.649L1070.33,470.37L1070.15,470.091L1069.97,469.814L1069.79,469.538L1069.6,469.263L1069.42,468.989L1069.23,468.716L1069.04,468.445L1068.85,468.175L1068.66,467.906L1068.46,467.637L1068.27,467.371L1068.07,467.106L1067.87,466.841L1067.67,466.578L1067.47,466.316L1067.27,466.056L1067.06,465.796L1066.85,465.539L1066.64,465.282L1066.43,465.026L1066.22,464.772L1066.01,464.519L1065.8,464.267L1065.58,464.017L1065.37,463.768L1065.15,463.521L1064.93,463.274L1064.71,463.029L1064.48,462.785L1064.26,462.543L1064.03,462.302L1063.81,462.062L1063.58,461.824L1063.35,461.587L1063.12,461.352L1062.88,461.117L1062.65,460.885L1062.41,460.653L1062.18,460.423L1061.94,460.195L1061.7,459.967L1061.46,459.741L1061.21,459.517L1060.97,459.295L1060.73,459.073L1060.48,458.853L1060.23,458.635L1059.98,458.418L1059.73,458.202L1059.48,457.988L1059.23,457.775L1058.97,457.564L1058.72,457.354L1058.46,457.146L1058.2,456.94L1057.94,456.735L1057.68,456.532L1057.42,456.33L1057.16,456.129L1056.89,455.93L1056.63,455.733L1056.36,455.537L1056.09,455.343L1055.83,455.15L1055.56,454.959L1055.28,454.769L1055.01,454.582L1054.74,454.396L1054.46,454.211L1054.19,454.028L1053.91,453.846L1053.63,453.667L1053.35,453.489L1053.07,453.312L1052.79,453.137L1052.51,452.964L1052.22,452.792L1051.94,452.623L1051.65,452.455L1051.36,452.288L1051.07,452.123L1050.78,451.96L1050.49,451.799L1050.2,451.639L1049.91,451.481L1049.62,451.325L1049.32,451.17L1049.03,451.018L1048.73,450.867L1048.43,450.717L1048.13,450.57L1047.83,450.424L1047.53,450.28L1047.23,450.138L1046.93,449.998L1046.62,449.859L1046.32,449.722L1046.01,449.587L1045.7,449.454L1045.4,449.323L1045.09,449.193L1044.78,449.065L1044.47,448.939L1044.16,448.816L1043.84,448.693L1043.53,448.573L1043.22,448.454L1042.9,448.338L1042.59,448.223L1042.27,448.11L1041.95,447.999L1041.63,447.89L1041.31,447.783L1040.99,447.678L1040.67,447.575L1040.35,447.473L1040.03,447.374L1039.7,447.276L1039.38,447.181L1039.05,447.087L1038.72,446.995L1038.4,446.906L1038.07,446.818L1037.74,446.732L1037.41,446.648L1037.08,446.567L1036.75,446.487L1036.42,446.409L1036.09,446.333L1035.75,446.26L1035.42,446.188L1035.08,446.118L1034.75,446.05L1034.41,445.985L1034.07,445.921L1033.74,445.86L1033.4,445.8L1033.06,445.743L1032.72,445.687L1032.38,445.634L1032.04,445.583L1031.69,445.534L1031.35,445.487L1031.01,445.442L1030.66,445.4L1030.32,445.359L1029.97,445.321L1029.63,445.284L1029.28,445.25L1028.93,445.218L1028.58,445.188L1028.23,445.161L1027.88,445.135L1027.53,445.112L1027.18,445.091L1026.83,445.072L1026.48,445.055L1026.13,445.04L1025.78,445.028L1025.42,445.018L1025.07,445.01L1024.71,445.004L1024.36,445.001L1024,445L1023.64,445.001Z" style="fill:rgb(240,240,240);"/>
            </g>
            <g transform="matrix(0.618182,8.77337e-05,-8.77337e-05,0.618182,490.337,264.133)">
                <path d="M734,475.25L753.647,506L798,451" style="fill:none;stroke:rgb(9,163,13);stroke-width:9.71px;"/>
            </g>
        </g>
    </g>
</svg>
